<svg xmlns="http://www.w3.org/2000/svg" viewBox="0 0 750 500"><g id="freepik--Device--inject-23"><path d="M271.57,448.1a3.36,3.36,0,1,1-3.36-3.36A3.35,3.35,0,0,1,271.57,448.1Z" style="fill:#263238"></path><path d="M270,448.1a1.75,1.75,0,1,1-1.75-1.75A1.74,1.74,0,0,1,270,448.1Z" style="fill:#ebebeb"></path><path d="M282.27,448.1a3.36,3.36,0,1,1-3.35-3.36A3.35,3.35,0,0,1,282.27,448.1Z" style="fill:#263238"></path><path d="M280.66,448.1a1.75,1.75,0,1,1-1.74-1.75A1.74,1.74,0,0,1,280.66,448.1Z" style="fill:#ebebeb"></path><path d="M319.51,448.1a3.36,3.36,0,1,1-3.36-3.36A3.35,3.35,0,0,1,319.51,448.1Z" style="fill:#263238"></path><path d="M317.9,448.1a1.75,1.75,0,1,1-1.75-1.75A1.74,1.74,0,0,1,317.9,448.1Z" style="fill:#ebebeb"></path><path d="M330.22,448.1a3.36,3.36,0,1,1-3.36-3.36A3.36,3.36,0,0,1,330.22,448.1Z" style="fill:#263238"></path><path d="M328.6,448.1a1.74,1.74,0,1,1-1.74-1.75A1.74,1.74,0,0,1,328.6,448.1Z" style="fill:#ebebeb"></path><path d="M322.3,443.25h7.58v-4.89a6.12,6.12,0,0,0-6.11-6.11h-9.49Z" style="fill:#c7c7c7"></path><rect x="293.09" y="256.94" width="8.9" height="175.31" style="fill:#dbdbdb"></rect><polygon points="301.99 260.51 293.09 258.73 293.09 256.94 301.99 256.94 301.99 260.51" style="fill:#c7c7c7"></polygon><rect x="253.91" y="171.75" width="80.69" height="66.9" style="fill:#dbdbdb"></rect><polygon points="334.59 238.65 253.91 238.65 253.91 233.51 334.59 236.08 334.59 238.65" style="fill:#c7c7c7"></polygon><rect x="258.03" y="175.97" width="72.45" height="48.49" style="fill:#263238"></rect><path d="M310.68,176,262.2,224.46H258v-8.12L298.38,176Zm8.62,48.49h11.17V213.28ZM262.68,176,258,180.63v6.16L268.84,176Zm25.42,0L258,206.06v1.78L289.88,176Zm39,0-48.5,48.49h1.78L328.87,176ZM311.6,224.46h1.78l17.09-17.09v-1.78Z" style="fill:#37474f"></path><path d="M334.59,171.75h6.58a0,0,0,0,1,0,0v66.9a0,0,0,0,1,0,0h-2.49a4.09,4.09,0,0,1-4.09-4.09V171.75A0,0,0,0,1,334.59,171.75Z" transform="translate(675.76 410.39) rotate(180)" style="fill:#c7c7c7"></path><rect x="247.14" y="238.65" width="94.23" height="18.3" style="fill:#dbdbdb"></rect><rect x="341.36" y="238.65" width="6.58" height="18.3" transform="translate(689.31 495.59) rotate(180)" style="fill:#c7c7c7"></rect><rect x="251.36" y="242.78" width="6.37" height="3.82" style="fill:#c7c7c7"></rect><rect x="260.51" y="242.78" width="6.37" height="3.82" style="fill:#c7c7c7"></rect><rect x="269.65" y="242.78" width="6.37" height="3.82" style="fill:#c7c7c7"></rect><rect x="251.36" y="248.99" width="6.37" height="3.82" style="fill:#c7c7c7"></rect><rect x="260.51" y="248.99" width="6.37" height="3.82" style="fill:#c7c7c7"></rect><rect x="269.65" y="248.99" width="6.37" height="3.82" style="fill:#c7c7c7"></rect><rect x="281.92" y="242.78" width="6.37" height="3.82" style="fill:#c7c7c7"></rect><rect x="291.07" y="242.78" width="6.37" height="3.82" style="fill:#c7c7c7"></rect><rect x="300.21" y="242.78" width="6.37" height="3.82" style="fill:#c7c7c7"></rect><rect x="281.92" y="248.99" width="24.66" height="0.73" style="fill:#c7c7c7"></rect><rect x="281.92" y="250.53" width="24.66" height="0.73" style="fill:#c7c7c7"></rect><rect x="281.92" y="252.08" width="24.66" height="0.73" style="fill:#c7c7c7"></rect><rect x="312.48" y="242.78" width="6.37" height="3.82" style="fill:#c7c7c7"></rect><rect x="321.63" y="242.78" width="6.37" height="3.82" style="fill:#c7c7c7"></rect><rect x="330.77" y="242.78" width="6.37" height="3.82" style="fill:#c7c7c7"></rect><rect x="312.48" y="248.99" width="6.37" height="3.82" style="fill:#c7c7c7"></rect><rect x="321.63" y="248.99" width="6.37" height="3.82" style="fill:#c7c7c7"></rect><rect x="330.77" y="248.99" width="6.37" height="3.82" style="fill:#c7c7c7"></rect><path d="M271.17,432.25H315.6a6.7,6.7,0,0,1,6.7,6.7v4.29a0,0,0,0,1,0,0H265.06a0,0,0,0,1,0,0v-4.88A6.11,6.11,0,0,1,271.17,432.25Z" style="fill:#dbdbdb"></path><path d="M268.21,449.12h0a1.77,1.77,0,0,1-1.77-1.77v-4.1H270v4.1A1.78,1.78,0,0,1,268.21,449.12Z" style="fill:#dbdbdb"></path><path d="M316.16,449.12h0a1.77,1.77,0,0,1-1.77-1.77v-4.1h3.54v4.1A1.77,1.77,0,0,1,316.16,449.12Z" style="fill:#dbdbdb"></path><path d="M278.92,449.12h0a1.78,1.78,0,0,1-1.78-1.77v-4.1h3.55v4.1A1.77,1.77,0,0,1,278.92,449.12Z" style="fill:#dbdbdb"></path><path d="M326.86,449.12h0a1.77,1.77,0,0,1-1.77-1.77v-4.1h3.55v4.1A1.78,1.78,0,0,1,326.86,449.12Z" style="fill:#dbdbdb"></path><path d="M267.23,283.7a4.14,4.14,0,0,1-4.13-4.13V256.94h.75v22.63a3.38,3.38,0,0,0,6.76,0V256.94h.75v22.63A4.14,4.14,0,0,1,267.23,283.7Z" style="fill:#263238"></path><path d="M271,279.05a4.14,4.14,0,0,1-4.13-4.13v-18h.75v18a3.38,3.38,0,1,0,6.76,0v-18h.75v18A4.13,4.13,0,0,1,271,279.05Z" style="fill:#263238"></path><path d="M327.85,283.7a4.14,4.14,0,0,1-4.13-4.13V256.94h.75v22.63a3.38,3.38,0,1,0,6.76,0V256.94H332v22.63A4.14,4.14,0,0,1,327.85,283.7Z" style="fill:#263238"></path><path d="M324.09,279.05a4.13,4.13,0,0,1-4.12-4.13v-18h.75v18a3.38,3.38,0,1,0,6.75,0v-18h.75v18A4.13,4.13,0,0,1,324.09,279.05Z" style="fill:#263238"></path></g><g id="freepik--Floor--inject-23"><path d="M55.64,451.7c204.6-.61,434.12-.62,638.72,0-204.6.62-434.12.61-638.72,0Z" style="fill:#263238"></path></g><g id="freepik--Sofa--inject-23"><polygon points="625.47 368.97 659.14 368.97 678.41 272.89 647.59 258.73 625.47 368.97" style="fill:#37474f"></polygon><polygon points="534.59 368.97 625.47 368.97 647.59 258.73 556.7 258.73 534.59 368.97" style="fill:#455a64"></polygon><rect x="642.76" y="317.42" width="51.6" height="105.88" transform="translate(1337.12 740.72) rotate(180)" style="fill:#37474f"></rect><polygon points="509.82 423.3 523.92 423.3 544.93 317.42 509.82 317.42 509.82 423.3" style="fill:#37474f"></polygon><rect x="614.41" y="317.42" width="28.35" height="105.88" transform="translate(1257.17 740.72) rotate(180)" style="fill:#455a64"></rect><rect x="481.47" y="317.42" width="28.35" height="105.88" transform="translate(991.29 740.72) rotate(180)" style="fill:#455a64"></rect><rect x="509.82" y="368.97" width="104.59" height="54.33" transform="translate(1124.23 792.27) rotate(180)" style="fill:#455a64"></rect><rect x="509.82" y="345.48" width="104.59" height="23.71" transform="translate(1124.23 714.67) rotate(180)" style="fill:#455a64"></rect><path d="M635.81,317.42l-10.7-.19-10.7-.13h-.33v.33L614,329.81l0,12.39c0,8.26-.06,16.52,0,24.79s0,16.52.14,24.78.18,16.52.36,24.78q.26-12.39.36-24.78c.1-8.26.11-16.52.14-24.78s0-16.53,0-24.79l0-12.39-.12-12.39-.32.33,10.7-.14Z" style="fill:#263238"></path><path d="M509.82,317.42c-.22,8.29-.32,16.58-.41,24.88l-.12,24.87.12,24.87.15,12.44.26,12.44.26-12.44.15-12.44.12-24.87-.12-24.87C510.14,334,510,325.71,509.82,317.42Z" style="fill:#263238"></path><path d="M509.82,369c9.17.22,18.35.32,27.52.41l27.52.12,22-.12,13.76-.15,13.76-.26-13.76-.26-13.76-.15-22-.13-27.52.13C528.17,368.64,519,368.75,509.82,369Z" style="fill:#263238"></path><path d="M509.82,345.48c9.17.22,18.35.32,27.52.41l27.52.12,22-.12,13.76-.15,13.76-.26-13.76-.26-13.76-.15-22-.13-27.52.13C528.17,345.16,519,345.26,509.82,345.48Z" style="fill:#263238"></path><polygon points="674.75 423.3 675.45 431.88 677.08 451.7 684.55 451.7 686.18 431.88 686.88 423.3 674.75 423.3" style="fill:#c7c7c7"></polygon><polygon points="686.88 423.3 674.75 423.3 675.45 431.88 686.18 431.88 686.88 423.3" style="fill:#a6a6a6"></polygon><polygon points="622.52 423.3 623.22 431.88 624.85 451.7 632.32 451.7 633.95 431.88 634.65 423.3 622.52 423.3" style="fill:#c7c7c7"></polygon><polygon points="634.65 423.3 622.52 423.3 623.22 431.88 633.95 431.88 634.65 423.3" style="fill:#a6a6a6"></polygon><polygon points="541.37 423.3 542.07 431.88 543.7 451.7 551.17 451.7 552.8 431.88 553.5 423.3 541.37 423.3" style="fill:#c7c7c7"></polygon><polygon points="553.5 423.3 541.37 423.3 542.07 431.88 552.8 431.88 553.5 423.3" style="fill:#a6a6a6"></polygon><polygon points="489.13 423.3 489.82 431.88 491.45 451.7 498.93 451.7 500.55 431.88 501.25 423.3 489.13 423.3" style="fill:#c7c7c7"></polygon><polygon points="489.13 423.3 489.82 431.88 500.55 431.88 501.25 423.3 489.13 423.3" style="fill:#a6a6a6"></polygon></g><g id="freepik--Bed--inject-23"><path d="M75.54,219H202.7a7.32,7.32,0,0,1,7.32,7.32v97.28a0,0,0,0,1,0,0H68.22a0,0,0,0,1,0,0V226.34A7.32,7.32,0,0,1,75.54,219Z" style="fill:#dbdbdb"></path><path d="M81.35,219H208.51a7.32,7.32,0,0,1,7.32,7.32v97.28a0,0,0,0,1,0,0H74a0,0,0,0,1,0,0V226.34A7.32,7.32,0,0,1,81.35,219Z" style="fill:#c7c7c7"></path><path d="M210.62,319.08H79.24V228.23a5.37,5.37,0,0,1,5.36-5.36H205.26a5.37,5.37,0,0,1,5.36,5.36Zm-130.88-.5H210.12V228.23a4.87,4.87,0,0,0-4.86-4.86H84.6a4.87,4.87,0,0,0-4.86,4.86Z" style="fill:#a6a6a6"></path><rect x="80.42" y="323.63" width="3.29" height="4.8" style="fill:#dbdbdb"></rect><rect x="83.71" y="323.63" width="3.96" height="4.8" style="fill:#c7c7c7"></rect><rect x="200.29" y="323.63" width="3.29" height="4.8" style="fill:#dbdbdb"></rect><rect x="203.59" y="323.63" width="3.96" height="4.8" style="fill:#c7c7c7"></rect><polygon points="77.09 238.15 211.07 238.15 270.37 284.86 136.39 284.86 77.09 238.15" style="fill:#fff"></polygon><path d="M77.09,238.15l134-.18,59.39,46.7.55.43h-.7s-134.06,0-134.07-.11L77.09,238.15Zm0,0,59.4,46.59c-.56-.07,134-.1,133.88-.12l-.15.43L211,238.3c.63.06-134-.14-133.87-.15Z" style="fill:#c7c7c7"></path><rect x="136.39" y="284.86" width="405.18" height="43.56" style="fill:#ebebeb"></rect><polygon points="77.09 238.15 136.39 284.86 136.39 328.43 77.09 281.71 77.09 238.15" style="fill:#ebebeb"></polygon><rect x="164.98" y="284.86" width="376.59" height="43.56" style="fill:#0FADE9"></rect><rect x="161.12" y="284.86" width="18.57" height="43.56" style="fill:#0FADE9"></rect><rect x="161.12" y="284.86" width="18.57" height="43.56" style="opacity:0.1"></rect><rect x="413.41" y="285.29" width="128.16" height="43.14" style="opacity:0.1"></rect><polygon points="136.39 328.43 86.82 289.38 86.82 328.43 136.39 328.43" style="fill:#a6a6a6"></polygon><polygon points="136.39 328.43 79.92 283.94 79.92 290 128.26 328.43 136.39 328.43" style="fill:#37474f"></polygon><path d="M127.42,249.38H229.84a17.43,17.43,0,0,1,11,4.58l22.88,20c5.06,4.42,4.26,10.88-1.35,10.88H160a17.45,17.45,0,0,1-11-4.58l-22.88-20C121,255.83,121.82,249.38,127.42,249.38Z" style="fill:#fff"></path><path d="M262.41,285.11H160a17.58,17.58,0,0,1-11.2-4.65l-22.89-20c-2.83-2.49-4.09-5.88-3.13-8.45a4.62,4.62,0,0,1,4.65-2.87H229.84a17.59,17.59,0,0,1,11.21,4.64l22.88,20c2.84,2.48,4.09,5.88,3.13,8.45A4.62,4.62,0,0,1,262.41,285.11Zm-135-35.48a4.14,4.14,0,0,0-4.18,2.54c-.74,2-.1,5.19,3,7.9l22.89,20A17.31,17.31,0,0,0,160,284.61H262.41a4.14,4.14,0,0,0,4.18-2.55c.74-2,.11-5.18-3-7.89l-22.88-20a17.34,17.34,0,0,0-10.88-4.52Z" style="fill:#c7c7c7"></path><path d="M155.57,280.14h-.38a3.73,3.73,0,0,1-2.33-.95l-24.53-20.93c-2-1.67-1.67-4.16.48-4.16h.37a3.73,3.73,0,0,1,2.33,1L156,276C158,277.65,157.71,280.14,155.57,280.14Z" style="fill:#dbdbdb"></path><rect x="98.17" y="353.18" width="302.72" height="11.35" style="fill:#c7c7c7"></rect><rect x="400.89" y="353.18" width="132.56" height="11.35" transform="translate(934.34 717.7) rotate(180)" style="fill:#a6a6a6"></rect><rect x="73.3" y="328.43" width="333.53" height="24.75" style="fill:#dbdbdb"></rect><rect x="406.83" y="328.43" width="140.78" height="24.75" transform="translate(954.44 681.6) rotate(180)" style="fill:#c7c7c7"></rect><rect x="269.95" y="238.69" width="8.9" height="301.11" transform="translate(663.64 114.85) rotate(90)" style="fill:#dbdbdb"></rect><rect x="465.18" y="351.83" width="8.9" height="74.84" transform="translate(858.87 -80.38) rotate(90)" style="fill:#c7c7c7"></rect><circle cx="126.28" cy="438.56" r="13.14" transform="translate(-326.31 497.23) rotate(-81.32)" style="fill:#263238"></circle><path d="M133.11,438.56a6.83,6.83,0,1,1-6.83-6.82A6.83,6.83,0,0,1,133.11,438.56Z" style="fill:#ebebeb"></path><rect x="114.94" y="364.53" width="8.9" height="63.93" style="fill:#dbdbdb"></rect><path d="M126.36,440.47h-1a3.23,3.23,0,0,1-2.6-1.33l-7.72-10.68H124l5,6.92A3.21,3.21,0,0,1,126.36,440.47Z" style="fill:#dbdbdb"></path><circle cx="207.12" cy="438.56" r="13.14" transform="matrix(0.16, -0.99, 0.99, 0.16, -258.95, 572.76)" style="fill:#263238"></circle><path d="M214,438.56a6.83,6.83,0,1,1-6.83-6.82A6.83,6.83,0,0,1,214,438.56Z" style="fill:#ebebeb"></path><rect x="195.79" y="364.53" width="8.9" height="63.93" style="fill:#dbdbdb"></rect><path d="M207.2,440.47h-1a3.22,3.22,0,0,1-2.6-1.33l-7.72-10.68h8.9l5,6.92A3.21,3.21,0,0,1,207.2,440.47Z" style="fill:#dbdbdb"></path><circle cx="436.18" cy="438.56" r="13.14" transform="translate(-64.09 802.32) rotate(-81.18)" style="fill:#263238"></circle><path d="M443,438.56a6.83,6.83,0,1,1-6.82-6.82A6.82,6.82,0,0,1,443,438.56Z" style="fill:#ebebeb"></path><rect x="424.84" y="364.53" width="8.9" height="63.93" style="fill:#dbdbdb"></rect><path d="M436.26,440.47h-1a3.22,3.22,0,0,1-2.6-1.33L425,428.46h8.9l5,6.92A3.21,3.21,0,0,1,436.26,440.47Z" style="fill:#dbdbdb"></path><circle cx="517.02" cy="438.56" r="13.14" transform="translate(1.01 878.31) rotate(-80.74)" style="fill:#263238"></circle><path d="M523.85,438.56a6.83,6.83,0,1,1-6.83-6.82A6.83,6.83,0,0,1,523.85,438.56Z" style="fill:#ebebeb"></path><rect x="505.68" y="364.53" width="8.9" height="63.93" style="fill:#dbdbdb"></rect><path d="M517.1,440.47h-1a3.23,3.23,0,0,1-2.6-1.33l-7.72-10.68h8.9l5,6.92A3.21,3.21,0,0,1,517.1,440.47Z" style="fill:#dbdbdb"></path><path d="M172.57,293.6h1.92a0,0,0,0,1,0,0v34.82a0,0,0,0,1,0,0h-6.39a0,0,0,0,1,0,0V298.08A4.48,4.48,0,0,1,172.57,293.6Z" style="fill:#dbdbdb"></path><path d="M280.87,180.82H283a4.48,4.48,0,0,1,4.48,4.48V408.53A4.48,4.48,0,0,1,283,413h-2.14a0,0,0,0,1,0,0V180.82a0,0,0,0,1,0,0Z" transform="translate(-12.73 581.09) rotate(-90)" style="fill:#dbdbdb"></path><rect x="213.53" y="293.6" width="6.39" height="34.82" style="fill:#dbdbdb"></rect><rect x="348.43" y="293.6" width="6.39" height="34.82" style="fill:#dbdbdb"></rect><path d="M393.88,293.6h1.92a4.48,4.48,0,0,1,4.48,4.48v30.34a0,0,0,0,1,0,0h-6.39a0,0,0,0,1,0,0V293.6A0,0,0,0,1,393.88,293.6Z" style="fill:#dbdbdb"></path><path d="M411.73,279H537.89a7.32,7.32,0,0,1,7.32,7.32v37.28a0,0,0,0,1,0,0H404.41a0,0,0,0,1,0,0V286.34A7.32,7.32,0,0,1,411.73,279Z" style="fill:#dbdbdb"></path><path d="M417.54,279H543.7a7.32,7.32,0,0,1,7.32,7.32v37.28a0,0,0,0,1,0,0H410.22a0,0,0,0,1,0,0V286.34A7.32,7.32,0,0,1,417.54,279Z" style="fill:#c7c7c7"></path><path d="M545.81,319.08H415.43V288.23a5.37,5.37,0,0,1,5.36-5.36H540.46a5.36,5.36,0,0,1,5.35,5.36Zm-129.88-.5H545.31V288.23a4.86,4.86,0,0,0-4.85-4.86H420.79a4.87,4.87,0,0,0-4.86,4.86Z" style="fill:#a6a6a6"></path><rect x="416.61" y="323.63" width="3.29" height="4.8" style="fill:#dbdbdb"></rect><rect x="419.9" y="323.63" width="3.96" height="4.8" style="fill:#c7c7c7"></rect><rect x="535.49" y="323.63" width="3.29" height="4.8" style="fill:#dbdbdb"></rect><rect x="538.78" y="323.63" width="3.96" height="4.8" style="fill:#c7c7c7"></rect></g></svg>